<svg xmlns="http://www.w3.org/2000/svg" viewBox="0 0 24 24" fill="currentColor">
  <path d="M13.983 2.709c.38-.38.998-.38 1.377 0l1.464 1.464c.38.38.38.998 0 1.377l-1.464 1.464c-.38.38-.998.38-1.377 0l-1.464-1.464c-.38-.38-.38-.998 0-1.377l1.464-1.464zm-2.829 2.829c.38-.38.998-.38 1.377 0l1.464 1.464c.38.38.38.998 0 1.377l-1.464 1.464c-.38.38-.998.38-1.377 0l-1.464-1.464c-.38-.38-.38-.998 0-1.377l1.464-1.464zm-2.829 2.829c.38-.38.998-.38 1.377 0l1.464 1.464c.38.38.38.998 0 1.377l-1.464 1.464c-.38.38-.998.38-1.377 0l-1.464-1.464c-.38-.38-.38-.998 0-1.377l1.464-1.464zm-2.829 2.829c.38-.38.998-.38 1.377 0l1.464 1.464c.38.38.38.998 0 1.377l-1.464 1.464c-.38.38-.998.38-1.377 0l-1.464-1.464c-.38-.38-.38-.998 0-1.377l1.464-1.464zm8.485 0c.38-.38.998-.38 1.377 0l1.464 1.464c.38.38.38.998 0 1.377l-1.464 1.464c-.38.38-.998.38-1.377 0l-1.464-1.464c-.38-.38-.38-.998 0-1.377l1.464-1.464zm-2.829 2.829c.38-.38.998-.38 1.377 0l1.464 1.464c.38.38.38.998 0 1.377l-1.464 1.464c-.38.38-.998.38-1.377 0l-1.464-1.464c-.38-.38-.38-.998 0-1.377l1.464-1.464zm-2.829 2.829c.38-.38.998-.38 1.377 0l1.464 1.464c.38.38.38.998 0 1.377l-1.464 1.464c-.38.38-.998.38-1.377 0l-1.464-1.464c-.38-.38-.38-.998 0-1.377l1.464-1.464zm8.485 0c.38-.38.998-.38 1.377 0l1.464 1.464c.38.38.38.998 0 1.377l-1.464 1.464c-.38.38-.998.38-1.377 0l-1.464-1.464c-.38-.38-.38-.998 0-1.377l1.464-1.464z"/>
</svg>
