<svg xmlns="http://www.w3.org/2000/svg" viewBox="0 0 24 24" fill="currentColor">
  <path d="M1.125 0C.502 0 0 .502 0 1.125v21.75C0 23.498.502 24 1.125 24h21.75c.623 0 1.125-.502 1.125-1.125V1.125C24 .502 23.498 0 22.875 0zm17.363 9.75c.612 0 1.154.037 1.627.111a6.38 6.38 0 011.306.34v2.458a3.95 3.95 0 00-.643-.361 5.093 5.093 0 00-.717-.26 5.453 5.453 0 00-1.426-.2c-.3 0-.573.028-.819.086a2.1 2.1 0 00-.623.242c-.17.104-.3.229-.393.374a.888.888 0 00-.14.49c0 .196.053.373.156.529.104.156.252.304.443.444s.423.276.696.41c.273.135.582.274.926.416.47.197.892.407 1.266.628.374.222.695.473.963.753.268.279.472.598.614.957.142.359.214.768.214 1.229 0 .657-.125 1.21-.373 1.656a3.033 3.033 0 01-1.012 1.085 4.38 4.38 0 01-1.487.596c-.566.12-1.163.18-1.79.18a9.916 9.916 0 01-1.84-.164 5.544 5.544 0 01-1.512-.493v-2.63a5.033 5.033 0 001.59.546 7.97 7.97 0 001.738.19c.333 0 .624-.03.872-.09.249-.06.456-.144.623-.25.166-.108.29-.234.373-.38a1.023 1.023 0 00.123-.534c0-.287-.092-.532-.277-.736a2.716 2.716 0 00-.753-.537 7.88 7.88 0 00-1.117-.555 8.013 8.013 0 01-1.006-.493 3.785 3.785 0 01-.79-.636 2.618 2.618 0 01-.5-.808 2.292 2.292 0 01-.177-.956c0-.614.13-1.126.39-1.537.26-.411.615-.73 1.067-.957.452-.227.97-.341 1.553-.341zM7.322 9.75h2.474v1.313H9.11v7.874H7.322V9.75zm5.955 0h2.475v9.187h-2.475V9.75z"/>
</svg>
